<svg width="60.000000" height="60.000000" viewBox="0 0 60 60" fill="none" xmlns="http://www.w3.org/2000/svg" xmlns:xlink="http://www.w3.org/1999/xlink">
	<desc>
			Created with Pixso.
	</desc>
	<defs/>
	<path d="M9.58 9.58C6.25 12.92 6.25 18.3 6.25 29.05L6.25 30.95C6.25 41.69 6.25 47.07 9.58 50.41C12.92 53.75 18.3 53.75 29.05 53.75L30.95 53.75C41.69 53.75 47.07 53.75 50.41 50.41C53.75 47.07 53.75 41.69 53.75 30.95L53.75 29.05C53.75 18.3 53.75 12.92 50.41 9.58C47.07 6.25 41.69 6.25 30.95 6.25L29.05 6.25C18.3 6.25 12.92 6.25 9.58 9.58ZM14.25 20.75C14.5 33.08 20.66 40.5 31.47 40.5L32.08 40.5L32.08 33.44C36.05 33.83 39.06 36.74 40.26 40.5L45.87 40.5C44.33 34.88 40.28 31.78 37.75 30.59C40.28 29.13 43.84 25.57 44.68 20.75L39.59 20.75C38.48 24.66 35.2 28.22 32.08 28.55L32.08 20.75L26.99 20.75L26.99 34.43C23.83 33.63 19.84 29.8 19.66 20.75L14.25 20.75Z" fill="#E4E4E4" fill-opacity="1.000000" fill-rule="evenodd"/>
</svg>
